<svg width="1024" height="264" viewBox="0 0 1024 264" fill="none" xmlns="http://www.w3.org/2000/svg">
<path d="M291.015 56.22C291.015 54.46 289.695 52.92 287.715 52.92H248.115C246.355 52.92 244.815 54.46 244.815 56.22V142.24C244.815 153.02 243.715 160.5 241.735 164.68C240.415 166.66 237.995 167.76 234.475 167.76C230.955 167.76 228.535 166.66 227.215 164.68C224.795 160.5 223.915 153.02 223.915 142.24V56.22C223.915 54.46 222.375 52.92 220.615 52.92H181.015C179.255 52.92 177.715 54.46 177.715 56.22V150.16C177.715 164.02 178.375 178.76 186.955 190.42C197.735 205.16 213.575 212.42 234.475 212.42C259.775 212.42 283.315 200.54 289.255 174.36C290.355 168.42 291.015 160.5 291.015 150.16V56.22ZM407.218 56.22C407.218 54.46 405.678 52.92 403.918 52.92H307.558C305.798 52.92 304.258 54.46 304.258 56.22V90.54C304.258 92.52 305.798 93.84 307.558 93.84H332.638V206.48C332.638 208.24 334.178 209.78 335.938 209.78H375.318C377.298 209.78 378.618 208.24 378.618 206.48V93.84H403.918C405.678 93.84 407.218 92.52 407.218 90.54V56.22ZM590.769 56.22C590.769 54.46 589.229 52.92 587.469 52.92H539.949C538.409 52.92 537.529 53.58 536.869 55.12L505.629 139.38L474.169 55.12C473.949 54.02 472.629 52.92 471.089 52.92H423.789C422.029 52.92 420.489 54.46 420.489 56.22V206.48C420.489 208.24 422.029 209.78 423.789 209.78H462.949C464.709 209.78 466.249 208.24 466.249 206.48L465.589 147.96L487.809 207.58C488.469 209.12 489.349 209.78 490.889 209.78H520.149C521.689 209.78 522.789 209.12 523.449 207.58L545.669 147.96L545.009 206.48C545.009 208.24 546.329 209.78 548.309 209.78H587.469C589.229 209.78 590.769 208.24 590.769 206.48V56.22ZM705.165 55.12C704.505 53.58 703.625 52.92 702.085 52.92H669.745C668.205 52.92 667.325 53.58 666.665 55.12L604.405 205.16C603.525 207.58 605.065 209.78 607.485 209.78H649.065C650.165 209.78 651.485 208.68 652.145 207.8L662.925 180.3H706.925L717.705 207.8C718.365 208.68 719.685 209.78 720.785 209.78H763.465C765.885 209.78 767.425 207.58 766.545 205.16L705.165 55.12ZM867.257 151.7C886.617 143.78 897.837 127.06 898.057 105.28C898.057 80.42 883.757 62.16 859.997 56C852.297 54.02 840.197 52.92 824.137 52.92H783.437C781.677 52.92 780.137 54.46 780.137 56.22V206.48C780.137 208.24 781.677 209.78 783.437 209.78H823.037C824.797 209.78 826.337 208.24 826.337 206.48V167.1L850.537 208.24C851.197 208.9 852.517 209.78 853.397 209.78H900.917C903.777 209.78 905.317 207.14 903.777 204.72L867.257 151.7ZM1013.72 56.22C1013.72 54.46 1012.18 52.92 1010.42 52.92H914.062C912.302 52.92 910.762 54.46 910.762 56.22V90.54C910.762 92.52 912.302 93.84 914.062 93.84H939.142V206.48C939.142 208.24 940.682 209.78 942.442 209.78H981.822C983.802 209.78 985.122 208.24 985.122 206.48V93.84H1010.42C1012.18 93.84 1013.72 92.52 1013.72 90.54V56.22Z" fill="#EB4433"/>
<path d="M675.662 81.4682C676.523 76.7712 682.848 75.8382 685.029 80.0867L717.457 143.283C719.165 146.61 716.748 150.565 713.009 150.565H668.999C665.877 150.565 663.519 147.735 664.081 144.664L675.662 81.4682Z" fill="white"/>
<path d="M867.089 109.183C869.85 109.183 872.125 106.933 871.736 104.2C870.969 98.8116 868.964 93.6394 865.846 89.0808C861.775 83.1305 855.99 78.4929 849.221 75.7543C842.452 73.0157 835.003 72.2991 827.817 73.6952C820.632 75.0914 814.031 78.5375 808.85 83.5978C803.669 88.658 800.141 95.1052 798.712 102.124C797.282 109.143 798.016 116.418 800.82 123.03C803.624 129.641 808.372 135.292 814.464 139.268C819.164 142.335 824.501 144.299 830.059 145.037C832.796 145.4 835.044 143.127 835.044 140.366L835.044 126.847C835.044 124.086 832.729 121.934 830.162 120.915C829.353 120.594 828.575 120.192 827.841 119.713C825.709 118.321 824.047 116.343 823.066 114.029C822.085 111.715 821.828 109.169 822.328 106.712C822.828 104.256 824.063 101.999 825.876 100.228C827.69 98.4571 830 97.2509 832.515 96.7623C835.03 96.2736 837.637 96.5244 840.006 97.4829C842.375 98.4414 844.4 100.065 845.825 102.147C846.295 102.834 846.693 103.562 847.015 104.317C848.097 106.858 850.249 109.183 853.01 109.183H867.089Z" fill="white"/>
<circle cx="83.5655" cy="128.363" r="83.5655" fill="#EB4432"/>
<circle cx="90.0212" cy="116.169" r="49.8524" fill="white"/>
</svg>
